<svg width="157" height="56" viewBox="0 0 157 56" fill="none" xmlns="http://www.w3.org/2000/svg">
<path d="M1.4614 54.416C26.6427 49.2485 53.9717 40.2555 69.2441 17.9965C71.6257 14.5255 76.0581 5.37685 70.4031 2.53943C65.4403 0.0493599 55.6868 2.48732 52.4608 6.69485C44.0645 17.6459 36.8253 34.2189 53.9932 41.2653C72.6829 48.9364 98.8733 46.8283 118.48 43.7581C127.99 42.269 139.321 39.7266 148.035 35.562C153.819 32.7974 148.383 33.372 144.327 32.9703C138.557 32.399 125.235 31.0798 138.008 32.3446C143.198 32.8586 148.953 32.6057 153.741 31.7398C158.86 30.8139 150.737 35.9095 149.883 36.9191C147.19 40.1017 143.967 45.3601 143.55 49.5775" stroke="#1F1F1F" stroke-width="2" stroke-linecap="round"/>
</svg>
