<svg width="146" height="49" viewBox="0 0 146 49" fill="none" xmlns="http://www.w3.org/2000/svg">
<path d="M1 25.2319C9.50191 9.88558 27.9368 -8.69514 45.8057 6.88653C55.6999 15.5143 60.9042 40.0666 46.3455 47.3666C41.1403 49.9766 41.0493 43.8849 41.787 40.63C43.1266 34.7191 47.2288 29.9334 52.3436 26.856C65.2177 19.11 75.5548 31.5769 86.3528 36.5399C100.367 42.9812 121.232 43.592 135.717 38.224C148.236 33.5846 140.067 33.0785 131.638 29.322C125.229 26.4652 139.338 30.0339 141.355 30.8859C143.891 31.9565 146.426 31.0944 144.054 33.4723C140.037 37.5011 136.142 42.3078 132.718 46.8854" stroke="#1F1F1F" stroke-width="2" stroke-linecap="round"/>
</svg>
